<svg xmlns="http://www.w3.org/2000/svg" viewBox="0 0 512 512">
    <g>
        <g fill-rule="evenodd">
            <path fill="#ff3f5b"
                d="M512 71.77v368.46A71.859 71.859 0 0 1 440.229 512H71.771A71.859 71.859 0 0 1 0 440.23V71.77A71.856 71.856 0 0 1 71.769 0h368.462A71.86 71.86 0 0 1 512 71.77z"
                opacity="1" data-original="#ff3f5b" class=""></path>
            <g fill="#fff">
                <path
                    d="M422 161.29v135.63a56.064 56.064 0 0 1-56 56h-54.06a16 16 0 1 1 0-32H366a24.031 24.031 0 0 0 24-24V161.29a24.035 24.035 0 0 0-24-24H146a24.031 24.031 0 0 0-24 24v135.63a24.03 24.03 0 0 0 24 24h57.843a16 16 0 0 1 0 32H146a56.061 56.061 0 0 1-56-56V161.29a56.067 56.067 0 0 1 56-56h220a56.07 56.07 0 0 1 56 56z"
                    fill="#ffffff" opacity="1" data-original="#ffffff" class=""></path>
                <path
                    d="M315.5 278.28a16 16 0 0 0 1.579-22.57l-49.009-56.34a16 16 0 0 0-24.141 0l-49.007 56.34a16 16 0 0 0 24.146 21L240 252.64v138.07a16 16 0 1 0 32 0V252.64l20.934 24.07a16 16 0 0 0 22.566 1.57z"
                    fill="#ffffff" opacity="1" data-original="#ffffff" class=""></path>
            </g>
        </g>
    </g>
</svg>