<svg xmlns="http://www.w3.org/2000/svg" version="1.1" xmlns:xlink="http://www.w3.org/1999/xlink" viewBox="0 0 24 24"
    style="enable-background:new 0 0 512 512" xml:space="preserve" class="">
    <g>
        <path
            d="M19.78 4.22a11 11 0 1 0 0 15.56 11 11 0 0 0 0-15.56zm-1.42 14.14a9 9 0 1 1 0-12.72 9 9 0 0 1 0 12.72zm-2.12-9.19L13.41 12l2.83 2.83a1 1 0 0 1 0 1.41 1 1 0 0 1-1.41 0L12 13.41l-2.83 2.83a1 1 0 0 1-1.41 0 1 1 0 0 1 0-1.41L10.59 12 7.76 9.17a1 1 0 0 1 1.41-1.41L12 10.59l2.83-2.83a1 1 0 1 1 1.41 1.41z"
            data-name="Layer 56" fill="#000000" opacity="1" data-original="#000000" class=""></path>
    </g>
</svg>